<mxfile host="65bd71144e">
    <diagram id="TRZT1fHIWiJLAeHFL2q9" name="Page-1">
        <mxGraphModel dx="1276" dy="445" grid="1" gridSize="1" guides="1" tooltips="1" connect="1" arrows="1" fold="1" page="1" pageScale="1" pageWidth="850" pageHeight="1100" math="0" shadow="0">
            <root>
                <mxCell id="0"/>
                <mxCell id="1" parent="0"/>
                <mxCell id="4" value="" style="group" vertex="1" connectable="0" parent="1">
                    <mxGeometry x="-518" y="145" width="120" height="60" as="geometry"/>
                </mxCell>
                <mxCell id="2" value="" style="rounded=1;whiteSpace=wrap;html=1;" vertex="1" parent="4">
                    <mxGeometry width="120" height="60" as="geometry"/>
                </mxCell>
                <mxCell id="3" value="&lt;font face=&quot;Comic Sans MS&quot;&gt;Demand&lt;/font&gt;" style="text;html=1;strokeColor=none;fillColor=none;align=center;verticalAlign=middle;whiteSpace=wrap;rounded=0;" vertex="1" parent="4">
                    <mxGeometry x="30" y="15" width="60" height="30" as="geometry"/>
                </mxCell>
                <mxCell id="15" value="" style="shape=flexArrow;endArrow=classic;html=1;fontFamily=Comic Sans MS;shadow=0;fillColor=#121111;startSize=6;endSize=1.2790697674418605;fillStyle=auto;gradientColor=none;endWidth=4.630490956072351;width=2.2222222222222223;" edge="1" parent="4">
                    <mxGeometry width="50" height="50" relative="1" as="geometry">
                        <mxPoint x="98" y="43.5" as="sourcePoint"/>
                        <mxPoint x="98" y="16.5" as="targetPoint"/>
                    </mxGeometry>
                </mxCell>
                <mxCell id="16" value="" style="group" vertex="1" connectable="0" parent="1">
                    <mxGeometry x="-636" y="246" width="120" height="60" as="geometry"/>
                </mxCell>
                <mxCell id="17" value="" style="rounded=1;whiteSpace=wrap;html=1;" vertex="1" parent="16">
                    <mxGeometry width="120" height="60" as="geometry"/>
                </mxCell>
                <mxCell id="18" value="&lt;font face=&quot;Comic Sans MS&quot;&gt;Production&lt;/font&gt;" style="text;html=1;strokeColor=none;fillColor=none;align=center;verticalAlign=middle;whiteSpace=wrap;rounded=0;" vertex="1" parent="16">
                    <mxGeometry x="30" y="15" width="60" height="30" as="geometry"/>
                </mxCell>
                <mxCell id="19" value="" style="shape=flexArrow;endArrow=classic;html=1;fontFamily=Comic Sans MS;shadow=0;fillColor=#121111;startSize=6;endSize=1.2790697674418605;fillStyle=auto;gradientColor=none;endWidth=4.630490956072351;width=2.2222222222222223;" edge="1" parent="16">
                    <mxGeometry width="50" height="50" relative="1" as="geometry">
                        <mxPoint x="98" y="43.5" as="sourcePoint"/>
                        <mxPoint x="98" y="16.5" as="targetPoint"/>
                    </mxGeometry>
                </mxCell>
                <mxCell id="20" value="" style="group" vertex="1" connectable="0" parent="1">
                    <mxGeometry x="-399" y="244" width="120" height="60" as="geometry"/>
                </mxCell>
                <mxCell id="21" value="" style="rounded=1;whiteSpace=wrap;html=1;" vertex="1" parent="20">
                    <mxGeometry width="120" height="60" as="geometry"/>
                </mxCell>
                <mxCell id="22" value="&lt;font face=&quot;Comic Sans MS&quot;&gt;Price&lt;/font&gt;" style="text;html=1;strokeColor=none;fillColor=none;align=center;verticalAlign=middle;whiteSpace=wrap;rounded=0;" vertex="1" parent="20">
                    <mxGeometry x="30" y="15" width="60" height="30" as="geometry"/>
                </mxCell>
                <mxCell id="23" value="" style="shape=flexArrow;endArrow=classic;html=1;fontFamily=Comic Sans MS;shadow=0;fillColor=#121111;startSize=6;endSize=1.2790697674418605;fillStyle=auto;gradientColor=none;endWidth=4.630490956072351;width=2.2222222222222223;" edge="1" parent="20">
                    <mxGeometry width="50" height="50" relative="1" as="geometry">
                        <mxPoint x="98" y="43.5" as="sourcePoint"/>
                        <mxPoint x="98" y="16.5" as="targetPoint"/>
                    </mxGeometry>
                </mxCell>
                <mxCell id="24" value="" style="group" vertex="1" connectable="0" parent="1">
                    <mxGeometry x="-512" y="362" width="120" height="60" as="geometry"/>
                </mxCell>
                <mxCell id="25" value="" style="rounded=1;whiteSpace=wrap;html=1;" vertex="1" parent="24">
                    <mxGeometry width="120" height="60" as="geometry"/>
                </mxCell>
                <mxCell id="26" value="&lt;font face=&quot;Comic Sans MS&quot;&gt;Corporate Profits&lt;/font&gt;" style="text;html=1;strokeColor=none;fillColor=none;align=center;verticalAlign=middle;whiteSpace=wrap;rounded=0;" vertex="1" parent="24">
                    <mxGeometry x="30" y="15" width="60" height="30" as="geometry"/>
                </mxCell>
                <mxCell id="27" value="" style="shape=flexArrow;endArrow=classic;html=1;fontFamily=Comic Sans MS;shadow=0;fillColor=#121111;startSize=6;endSize=1.2790697674418605;fillStyle=auto;gradientColor=none;endWidth=4.630490956072351;width=2.2222222222222223;" edge="1" parent="24">
                    <mxGeometry width="50" height="50" relative="1" as="geometry">
                        <mxPoint x="98" y="43.5" as="sourcePoint"/>
                        <mxPoint x="98" y="16.5" as="targetPoint"/>
                    </mxGeometry>
                </mxCell>
                <mxCell id="28" value="" style="endArrow=classic;html=1;shadow=0;sketch=0;fillStyle=auto;fontFamily=Comic Sans MS;startSize=6;endSize=6;fillColor=#121111;gradientColor=none;entryX=0.5;entryY=0;entryDx=0;entryDy=0;exitX=0.5;exitY=1;exitDx=0;exitDy=0;edgeStyle=orthogonalEdgeStyle;curved=1;" edge="1" parent="1" source="2" target="17">
                    <mxGeometry width="50" height="50" relative="1" as="geometry">
                        <mxPoint x="-482" y="287" as="sourcePoint"/>
                        <mxPoint x="-432" y="237" as="targetPoint"/>
                    </mxGeometry>
                </mxCell>
                <mxCell id="29" style="edgeStyle=orthogonalEdgeStyle;curved=1;sketch=0;fillStyle=auto;html=1;entryX=0.5;entryY=0;entryDx=0;entryDy=0;shadow=0;fontFamily=Comic Sans MS;startSize=6;endSize=6;fillColor=#121111;gradientColor=none;" edge="1" parent="1" source="2" target="21">
                    <mxGeometry relative="1" as="geometry"/>
                </mxCell>
                <mxCell id="31" style="edgeStyle=orthogonalEdgeStyle;curved=1;sketch=0;fillStyle=auto;html=1;shadow=0;fontFamily=Comic Sans MS;startSize=6;endSize=6;fillColor=#121111;gradientColor=none;" edge="1" parent="1" source="21" target="25">
                    <mxGeometry relative="1" as="geometry"/>
                </mxCell>
                <mxCell id="32" style="edgeStyle=orthogonalEdgeStyle;curved=1;sketch=0;fillStyle=auto;html=1;entryX=0.5;entryY=0;entryDx=0;entryDy=0;shadow=0;fontFamily=Comic Sans MS;startSize=6;endSize=6;fillColor=#121111;gradientColor=none;" edge="1" parent="1" source="17" target="25">
                    <mxGeometry relative="1" as="geometry">
                        <Array as="points">
                            <mxPoint x="-576" y="334"/>
                            <mxPoint x="-452" y="334"/>
                        </Array>
                    </mxGeometry>
                </mxCell>
                <mxCell id="33" style="edgeStyle=orthogonalEdgeStyle;sketch=0;fillStyle=auto;html=1;entryX=0;entryY=0.5;entryDx=0;entryDy=0;shadow=0;fontFamily=Comic Sans MS;startSize=6;endSize=6;fillColor=#121111;gradientColor=none;curved=1;dashed=1;" edge="1" parent="1" source="25" target="2">
                    <mxGeometry relative="1" as="geometry">
                        <Array as="points">
                            <mxPoint x="-452" y="352"/>
                            <mxPoint x="-686" y="352"/>
                            <mxPoint x="-686" y="175"/>
                        </Array>
                    </mxGeometry>
                </mxCell>
                <mxCell id="35" value="" style="group" vertex="1" connectable="0" parent="1">
                    <mxGeometry x="-662" y="32" width="55" height="74" as="geometry"/>
                </mxCell>
                <mxCell id="36" value="" style="rounded=1;whiteSpace=wrap;html=1;" vertex="1" parent="35">
                    <mxGeometry width="55" height="74" as="geometry"/>
                </mxCell>
                <mxCell id="37" value="&lt;font face=&quot;Comic Sans MS&quot;&gt;Central Bank&lt;/font&gt;" style="text;html=1;strokeColor=none;fillColor=none;align=center;verticalAlign=middle;whiteSpace=wrap;rounded=0;" vertex="1" parent="35">
                    <mxGeometry x="13.75" y="18.5" width="27.5" height="37" as="geometry"/>
                </mxCell>
                <mxCell id="42" value="" style="html=1;shadow=0;dashed=0;align=center;verticalAlign=middle;shape=mxgraph.arrows2.arrow;dy=0.43;dx=20.76;notch=17.85;comic=0;sketch=0;fontFamily=Comic Sans MS;rotation=35;" vertex="1" parent="1">
                    <mxGeometry x="-601" y="106" width="77" height="37.68" as="geometry"/>
                </mxCell>
                <mxCell id="43" value="&lt;pre style=&quot;font-size: 28px; line-height: 36px; background-color: rgb(248, 249, 250); border: none; padding: 2px 0.14em 2px 0px; position: relative; margin: -2px 0px; resize: none; overflow: hidden; text-align: left; width: 270px; overflow-wrap: break-word; color: rgb(31, 31, 31); font-style: normal; font-variant-ligatures: normal; font-variant-caps: normal; font-weight: 400; letter-spacing: normal; orphans: 2; text-indent: 0px; text-transform: none; widows: 2; word-spacing: 0px; -webkit-text-stroke-width: 0px; text-decoration-thickness: initial; text-decoration-style: initial; text-decoration-color: initial;&quot; data-ved=&quot;2ahUKEwiHi67onIOFAxUNia8BHaf9B5QQ3ewLegQICBAU&quot; aria-label=&quot;Translated text&quot; id=&quot;tw-target-text&quot; data-placeholder=&quot;Translation&quot; class=&quot;tw-data-text tw-text-large tw-ta&quot;&gt;&lt;span style=&quot;&quot; lang=&quot;en&quot; class=&quot;Y2IQFc&quot;&gt;&lt;font face=&quot;Comic Sans MS&quot;&gt;Stimulate&lt;/font&gt;&lt;/span&gt;&lt;/pre&gt;" style="text;whiteSpace=wrap;html=1;fontFamily=Comic Sans MS;" vertex="1" parent="1">
                    <mxGeometry x="-533" y="74" width="294" height="50" as="geometry"/>
                </mxCell>
            </root>
        </mxGraphModel>
    </diagram>
</mxfile>